<svg width="42" height="42" viewBox="0 0 42 42" fill="none" xmlns="http://www.w3.org/2000/svg">
<rect width="42" height="42" transform="matrix(-1 0 0 1 42 0)" fill="#FF0000"/>
<path d="M22.7742 31.2283C22.3544 31.6034 21.6896 31.5882 21.2897 31.1945C20.8897 30.8007 20.9059 30.1774 21.3258 29.8023L30.0778 21.9847H9.45C8.87012 21.9847 8.4 21.5438 8.4 21C8.4 20.4562 8.87012 20.0154 9.45 20.0154H30.0779L21.3258 12.1976C20.9059 11.8226 20.8898 11.1993 21.2897 10.8055C21.6896 10.4118 22.3544 10.3966 22.7742 10.7717L33.1607 20.0494C33.3972 20.2606 33.5371 20.53 33.5805 20.8102C33.5933 20.8716 33.6 20.9352 33.6 21C33.6 21.0651 33.5933 21.1287 33.5804 21.1902C33.537 21.4703 33.3971 21.7396 33.1607 21.9507L22.7742 31.2283Z" fill="white"/>
</svg>
